<?xml version="1.0" encoding="iso-8859-1"?>
<!-- Uploaded to: SVG Repo, www.svgrepo.com, Generator: SVG Repo Mixer Tools -->
<svg fill="#000000" height="800px" width="800px" version="1.1" id="Layer_1" xmlns="http://www.w3.org/2000/svg" xmlns:xlink="http://www.w3.org/1999/xlink" 
	 viewBox="0 0 511.999 511.999" xml:space="preserve">
<g>
	<g>
		<path d="M314.944,187.352c-16.864-9.026-38.591-7.196-58.948,4.743c-20.359-11.939-42.086-13.766-58.949-4.743
			c-14.538,7.781-22.876,22.306-22.876,39.851c0,53.917,75.511,86.195,78.725,87.541c1.968,0.825,4.231,0.826,6.199,0
			c3.215-1.348,78.725-33.625,78.725-87.541C337.82,209.657,329.481,195.133,314.944,187.352z M255.99,298.554
			c-13.431-6.309-65.786-33.35-65.786-71.349c0-11.61,5.117-20.742,14.408-25.715c4.756-2.545,10.166-3.797,15.943-3.797
			c9.763,0,20.567,3.578,30.994,10.529c2.694,1.796,6.201,1.796,8.893,0c16.594-11.063,34.143-13.579,46.936-6.731
			c9.291,4.973,14.408,14.104,14.408,25.715C321.787,265.116,269.405,292.233,255.99,298.554z"/>
	</g>
</g>
<g>
	<g>
		<path d="M503.982,361.277h-67.616l-18.431-3.687v-56.707c0-4.427-3.588-8.017-8.017-8.017c-4.428,0-8.017,3.589-8.017,8.017v53.5
			l-93.026-18.605c-0.517-0.104-1.044-0.156-1.572-0.156H204.688c-4.427,0-8.017,3.589-8.017,8.017v27.792
			c0,22.103,17.981,40.084,40.084,40.084h32.153l-106.061,26.255l-52.757-25.978v-188.52L255.996,77.366l145.906,145.906v34.856
			c0,4.427,3.588,8.017,8.017,8.017c4.429,0,8.017-3.589,8.017-8.017v-18.821l22.506,22.506c9.25,9.247,23.991,11.267,35.36,4.755
			c10.262-5.878,16.077-17.628,14.561-29.345c-0.828-6.398-3.788-12.419-8.35-16.982L276.787,15.015
			c-5.572-5.175-12.528-8.448-20.202-8.593c-7.911-0.15-15.893,2.932-21.426,8.639L104.955,145.265
			c-3.131,3.131-3.131,8.207,0,11.337c3.131,3.131,8.207,3.131,11.337,0L246.542,26.352c0.015-0.015,0.03-0.03,0.045-0.045
			c2.445-2.424,5.696-3.794,9.178-3.857c0.159-0.01,0.319-0.01,0.477,0c3.485,0.064,6.752,1.447,9.201,3.895
			c0.003,0.003,0.008,0.007,0.006,0.006l205.225,205.225c5.151,5.15,5.151,13.746,0.001,18.895c-5.151,5.15-13.744,5.152-18.897,0
			L261.665,60.36c-3.132-3.131-8.207-3.13-11.338,0L60.214,250.473c-5.151,5.151-13.746,5.15-18.896,0
			c-5.15-5.15-5.151-13.745,0-18.896l44.742-44.742c3.131-3.131,3.131-8.207,0-11.337c-3.131-3.131-8.207-3.131-11.337,0
			L29.981,220.24c-8.08,8.08-10.733,20.465-6.717,31.16c4.434,11.807,16.298,19.567,28.883,18.989
			c7.285-0.335,14.251-3.423,19.405-8.578l22.506-22.506v164.592c0,0-47.331-23.299-47.49-23.365
			c-8.308-3.444-17.46-3.448-25.77-0.009c-8.311,3.439-14.785,9.908-18.229,18.216c-7.065,17.042,0.955,36.64,17.883,43.864
			l120.713,62.09c1.135,0.584,2.391,0.888,3.667,0.888h188.128c0.862,0,1.718-0.139,2.535-0.412l34.205-11.402
			c4.2-1.4,6.47-5.94,5.07-10.141c-1.401-4.201-5.94-6.471-10.141-5.071l-32.97,10.991H146.771c0,0-119.653-61.535-119.855-61.618
			c-8.983-3.725-13.262-14.065-9.537-23.048c3.694-8.911,13.897-13.194,22.83-9.626l118.183,58.192
			c1.695,0.835,3.632,1.043,5.467,0.59l171.025-42.335c3.579-0.886,6.091-4.097,6.091-7.782V403.5c0-4.427-3.588-8.017-8.017-8.017
			h-96.202c-13.262,0-24.05-10.789-24.05-24.05v-19.775h93.804L434,377.156c0.517,0.104,1.044,0.156,1.572,0.156h60.393v78.03
			h-60.393c-0.862,0-1.718,0.139-2.535,0.412l-25.653,8.551c-4.201,1.4-6.47,5.941-5.07,10.141c1.4,4.201,5.938,6.47,10.141,5.071
			l24.418-8.14h67.109c4.429,0,8.017-3.589,8.017-8.017v-94.064C511.999,364.866,508.411,361.277,503.982,361.277z"/>
	</g>
</g>
</svg>