<?xml version="1.0" encoding="iso-8859-1"?>
<!-- Uploaded to: SVG Repo, www.svgrepo.com, Generator: SVG Repo Mixer Tools -->
<svg fill="#000000" height="800px" width="800px" version="1.1" id="Layer_1" xmlns="http://www.w3.org/2000/svg" xmlns:xlink="http://www.w3.org/1999/xlink" 
	 viewBox="0 0 512 512" xml:space="preserve">
<g>
	<g>
		<path d="M352.316,37.762c-2.464-3.68-7.443-4.667-11.121-2.203c-3.679,2.463-4.666,7.442-2.203,11.121
			c7.592,11.343,11.605,24.586,11.605,38.297c0,38.015-30.928,68.944-68.944,68.944s-68.944-30.928-68.944-68.944
			s30.928-68.944,68.944-68.944c13.711,0,26.953,4.013,38.294,11.603c3.68,2.463,8.659,1.476,11.122-2.203
			c2.463-3.679,1.476-8.659-2.203-11.122C314.877,4.949,298.551,0,281.653,0c-46.856,0-84.977,38.121-84.977,84.977
			s38.121,84.977,84.977,84.977s84.977-38.121,84.977-84.977C366.63,68.079,361.68,51.752,352.316,37.762z"/>
	</g>
</g>
<g>
	<g>
		<path d="M296.618,76.96h-6.948V54.514h17.637c4.427,0,8.017-3.589,8.017-8.017c0-4.427-3.589-8.017-8.017-8.017H289.67v-9.086
			c0-4.427-3.589-8.017-8.017-8.017s-8.017,3.589-8.017,8.017v9.086h-6.948c-10.314,0-18.706,8.392-18.706,18.706v17.102
			c0,10.314,8.392,18.706,18.706,18.706h6.948v22.447H256c-4.427,0-8.017,3.589-8.017,8.017s3.589,8.017,8.017,8.017h17.637v9.086
			c0,4.427,3.589,8.017,8.017,8.017s8.017-3.589,8.017-8.017v-9.086h6.948c10.314,0,18.706-8.392,18.706-18.706V95.666
			C315.324,85.352,306.932,76.96,296.618,76.96z M273.637,76.96h-6.948c-1.473,0-2.672-1.199-2.672-2.672V57.186
			c0-1.473,1.199-2.672,2.672-2.672h6.948V76.96z M299.29,112.768c0,1.473-1.199,2.672-2.672,2.672h-6.948V92.994h6.948
			c1.473,0,2.672,1.199,2.672,2.672V112.768z"/>
	</g>
</g>
<g>
	<g>
		<path d="M511.957,306.476c-0.212-2.014-1.22-3.938-2.757-5.257L389.484,198.606c-1.453-1.245-3.303-1.93-5.217-1.93H127.733
			c-1.865,0-3.798,0.713-5.217,1.93L2.799,301.22C1.047,302.724,0,304.999,0,307.307v119.716c0,4.427,3.589,8.017,8.017,8.017
			c4.427,0,8.017-3.589,8.017-8.017V315.324h223.399v180.643h-60.927V367.165c0-4.427-3.589-8.017-8.017-8.017H84.977
			c-4.427,0-8.017,3.589-8.017,8.017v128.802H16.033v-26.188c0-4.427-3.589-8.017-8.017-8.017c-4.427,0-8.017,3.588-8.017,8.017
			v34.205C0,508.411,3.589,512,8.017,512h495.967c4.427,0,8.017-3.589,8.017-8.017V307.307
			C512,307.027,511.985,306.75,511.957,306.476z M162.472,495.967H92.994V375.182h69.478V495.967z M29.687,299.29l98.045-84.039
			l98.045,84.039H29.687z M495.967,495.967H255.466V315.324h154.455c4.427,0,8.017-3.589,8.017-8.017s-3.589-8.017-8.017-8.017
			H250.414l-101.01-86.58h231.898l101.01,86.58h-29.635c-4.427,0-8.017,3.589-8.017,8.017s3.589,8.017,8.017,8.017h43.29V495.967z"
			/>
	</g>
</g>
<g>
	<g>
		<path d="M375.716,230.881H213.244c-4.427,0-8.017,3.589-8.017,8.017s3.589,8.017,8.017,8.017h162.472
			c4.427,0,8.017-3.589,8.017-8.017S380.143,230.881,375.716,230.881z"/>
	</g>
</g>
<g>
	<g>
		<path d="M350.063,359.148h-51.307c-4.427,0-8.017,3.589-8.017,8.017v85.511c0,4.427,3.589,8.017,8.017,8.017h51.307
			c4.427,0,8.017-3.589,8.017-8.017v-85.511C358.079,362.738,354.49,359.148,350.063,359.148z M342.046,444.66h-35.273v-69.478
			h35.273V444.66z"/>
	</g>
</g>
<g>
	<g>
		<path d="M452.676,359.148H401.37c-4.427,0-8.017,3.589-8.017,8.017v85.511c0,4.427,3.589,8.017,8.017,8.017h51.307
			c4.427,0,8.017-3.589,8.017-8.017v-85.511C460.693,362.738,457.104,359.148,452.676,359.148z M444.66,444.66h-35.273v-69.478
			h35.273V444.66z"/>
	</g>
</g>
<g>
	<g>
		<path d="M110.63,427.557c-4.427,0-8.017,3.589-8.017,8.017v8.551c0,4.427,3.589,8.017,8.017,8.017s8.017-3.589,8.017-8.017v-8.551
			C118.647,431.147,115.058,427.557,110.63,427.557z"/>
	</g>
</g>
<g>
	<g>
		<path d="M153.386,273.637h-51.307c-4.427,0-8.017,3.589-8.017,8.017s3.589,8.017,8.017,8.017h51.307
			c4.427,0,8.017-3.589,8.017-8.017S157.814,273.637,153.386,273.637z"/>
	</g>
</g>
<g>
	<g>
		<path d="M144.835,247.983H110.63c-4.427,0-8.017,3.589-8.017,8.017s3.589,8.017,8.017,8.017h34.205
			c4.427,0,8.017-3.589,8.017-8.017S149.262,247.983,144.835,247.983z"/>
	</g>
</g>
</svg>